<svg width="80" height="80" viewBox="0 0 80 80" fill="none" xmlns="http://www.w3.org/2000/svg">
<mask id="path-1-outside-1" maskUnits="userSpaceOnUse" x="5.125" y="5.125" width="70" height="71" fill="black">
<rect fill="white" x="5.125" y="5.125" width="70" height="71"/>
<path fill-rule="evenodd" clip-rule="evenodd" d="M38.4873 8.92569C41.2105 10.085 43.6788 11.7695 45.751 13.8828C48.8713 17.0651 50.978 21.1012 51.8046 25.4807C52.6312 29.8602 52.1406 34.3865 50.3949 38.4873C49.4267 40.7616 48.0965 42.8484 46.4674 44.6723L55.6844 54.4636C55.9364 54.2363 56.2255 54.0531 56.5395 53.9222C56.9051 53.7698 57.2973 53.6913 57.6935 53.6913C58.0896 53.6913 58.4818 53.7698 58.8475 53.9222C59.2132 54.0746 59.545 54.298 59.8238 54.5793L59.8275 54.5831L71.9928 67.0063C72.2712 67.2823 72.4925 67.6105 72.6439 67.9723C72.7964 68.3366 72.8749 68.7276 72.8749 69.1226C72.8749 69.5175 72.7964 69.9085 72.6439 70.2728C72.5252 70.5566 72.3633 70.8199 72.1646 71.0534C72.1233 71.1308 72.0696 71.2032 72.0034 71.2678L70.401 72.8306C70.1251 73.1088 69.7971 73.3299 69.4356 73.4811C69.0713 73.6336 68.6803 73.7121 68.2854 73.7121C67.8904 73.7121 67.4994 73.6336 67.1351 73.4811C66.7708 73.3287 66.4404 73.1053 66.1632 72.824L66.1613 72.822L53.9735 60.3762C53.4155 59.8143 53.1023 59.0546 53.1023 58.2626C53.1023 57.5495 53.3563 56.8624 53.8143 56.3224L44.5988 46.5328C43.7841 47.2541 42.915 47.9183 41.997 48.5188C38.2673 50.9587 33.8979 52.2378 29.4412 52.1945C24.9846 52.1512 20.6409 50.7873 16.9593 48.2754C13.2778 45.7635 10.4237 42.2164 8.75801 38.0825C7.09233 33.9486 6.68984 29.4136 7.60143 25.051C8.51301 20.6884 10.6977 16.694 13.8794 13.573C15.9923 11.5003 18.4928 9.86417 21.2381 8.758C23.9834 7.65183 26.9197 7.09729 29.8794 7.12606C32.839 7.15484 35.764 7.76635 38.4873 8.92569ZM19.6706 19.4886C22.377 16.8438 26.0219 15.3803 29.8058 15.4189C33.5898 15.4574 37.2041 16.995 39.8561 19.6945C41.8315 21.7108 43.1647 24.2676 43.6871 27.0416C44.2096 29.8158 43.8976 32.6826 42.7908 35.2796C41.6839 37.8765 39.8319 40.0869 37.4688 41.6313C35.1057 43.1756 32.3377 43.9845 29.5149 43.9558C26.692 43.927 23.9411 43.0618 21.61 41.4696C19.2789 39.8774 17.4723 37.6297 16.4186 35.0107C15.3649 32.3918 15.1115 29.5192 15.6904 26.7562C16.2693 23.9934 17.6544 21.4642 19.6706 19.4886Z"/>
</mask>
<path d="M45.751 13.8828L47.0005 12.6576V12.6576L45.751 13.8828ZM38.4873 8.92569L37.8018 10.5359H37.8018L38.4873 8.92569ZM51.8046 25.4807L53.5242 25.1561L51.8046 25.4807ZM50.3949 38.4873L48.7847 37.8018L48.7847 37.8018L50.3949 38.4873ZM46.4674 44.6723L45.1622 43.5065C44.5574 44.1836 44.5708 45.2108 45.1931 45.8718L46.4674 44.6723ZM55.6844 54.4636L54.4102 55.6631C55.0627 56.3563 56.1497 56.4007 56.8566 55.763L55.6844 54.4636ZM56.5395 53.9222L57.2128 55.5375L57.2128 55.5375L56.5395 53.9222ZM58.8475 53.9222L59.5208 52.3069H59.5208L58.8475 53.9222ZM59.8238 54.5793L61.067 53.3476L61.0668 53.3475L59.8238 54.5793ZM59.8275 54.5831L61.0779 53.3587L61.0707 53.3514L59.8275 54.5831ZM71.9928 67.0063L70.7424 68.2307C70.7485 68.2369 70.7547 68.2431 70.7609 68.2493L71.9928 67.0063ZM72.6439 67.9723L74.2583 67.2967L74.2583 67.2967L72.6439 67.9723ZM72.6439 70.2728L74.2583 70.9484L74.2583 70.9484L72.6439 70.2728ZM72.1646 71.0534L70.8318 69.9193C70.7506 70.0148 70.6799 70.1187 70.6208 70.2293L72.1646 71.0534ZM72.0034 71.2678L70.7816 70.0149L70.7815 70.015L72.0034 71.2678ZM70.401 72.8306L69.1791 71.5778C69.1721 71.5846 69.1652 71.5915 69.1584 71.5984L70.401 72.8306ZM69.4356 73.4811L70.1112 75.0955L70.1112 75.0955L69.4356 73.4811ZM67.1351 73.4811L66.4595 75.0955L66.4595 75.0955L67.1351 73.4811ZM66.1632 72.824L64.9149 74.0505L64.9167 74.0523L66.1632 72.824ZM66.1613 72.822L64.9109 74.0464L64.913 74.0485L66.1613 72.822ZM53.9735 60.3762L55.2239 59.1518L55.2152 59.143L53.9735 60.3762ZM53.8143 56.3224L55.1488 57.4545C55.7251 56.7753 55.6991 55.7715 55.0886 55.1229L53.8143 56.3224ZM44.5988 46.5328L45.873 45.3333C45.2248 44.6447 44.1468 44.5956 43.4387 45.2225L44.5988 46.5328ZM41.997 48.5188L42.955 49.9833L42.955 49.9833L41.997 48.5188ZM29.4412 52.1945L29.4242 53.9444L29.4412 52.1945ZM16.9593 48.2754L17.9456 46.8298H17.9456L16.9593 48.2754ZM8.75801 38.0825L7.13482 38.7365H7.13482L8.75801 38.0825ZM7.60143 25.051L9.31443 25.4089L7.60143 25.051ZM13.8794 13.573L12.6539 12.3237L13.8794 13.573ZM21.2381 8.758L20.584 7.13481V7.13481L21.2381 8.758ZM29.8794 7.12606L29.8964 5.37615L29.8794 7.12606ZM29.8058 15.4189L29.788 17.1688L29.8058 15.4189ZM19.6706 19.4886L18.4475 18.2369L18.4458 18.2386L19.6706 19.4886ZM39.8561 19.6945L41.1062 18.4698L41.1045 18.4681L39.8561 19.6945ZM43.6871 27.0416L45.4069 26.7177L43.6871 27.0416ZM42.7908 35.2796L41.1809 34.5934L42.7908 35.2796ZM37.4688 41.6313L36.5114 40.1664H36.5114L37.4688 41.6313ZM29.5149 43.9558L29.497 45.7057L29.5149 43.9558ZM16.4186 35.0107L14.7951 35.6639V35.6639L16.4186 35.0107ZM15.6904 26.7562L17.4032 27.115L15.6904 26.7562ZM47.0005 12.6576C44.7674 10.3801 42.1075 8.56488 39.1727 7.31552L37.8018 10.5359C40.3136 11.6052 42.5901 13.1588 44.5014 15.108L47.0005 12.6576ZM53.5242 25.1561C52.6334 20.4365 50.3632 16.087 47.0005 12.6576L44.5014 15.108C47.3795 18.0432 49.3225 21.7659 50.0849 25.8053L53.5242 25.1561ZM52.005 39.1727C53.8863 34.7536 54.415 29.8758 53.5242 25.1561L50.0849 25.8053C50.8474 29.8447 50.3949 34.0195 48.7847 37.8018L52.005 39.1727ZM47.7725 45.8381C49.5281 43.8725 50.9616 41.6237 52.005 39.1727L48.7847 37.8018C47.8917 39.8995 46.6648 41.8242 45.1622 43.5065L47.7725 45.8381ZM56.9587 53.2641L47.7416 43.4728L45.1931 45.8718L54.4102 55.6631L56.9587 53.2641ZM55.8661 52.3069C55.3689 52.5142 54.9112 52.8042 54.5122 53.1642L56.8566 55.763C56.9616 55.6683 57.082 55.592 57.2128 55.5375L55.8661 52.3069ZM57.6935 51.9413C57.0662 51.9413 56.4451 52.0655 55.8661 52.3069L57.2128 55.5375C57.3651 55.474 57.5285 55.4413 57.6935 55.4413V51.9413ZM59.5208 52.3069C58.9418 52.0655 58.3208 51.9413 57.6935 51.9413V55.4413C57.8585 55.4413 58.0219 55.474 58.1742 55.5375L59.5208 52.3069ZM61.0668 53.3475C60.6253 52.9019 60.0999 52.5483 59.5208 52.3069L58.1742 55.5375C58.3265 55.6009 58.4647 55.694 58.5809 55.8112L61.0668 53.3475ZM61.0707 53.3514L61.067 53.3476L58.5807 55.811L58.5844 55.8148L61.0707 53.3514ZM73.2431 65.7819L61.0779 53.3587L58.5772 55.8074L70.7424 68.2307L73.2431 65.7819ZM74.2583 67.2967C74.0179 66.7225 73.6667 66.2014 73.2246 65.7633L70.7609 68.2493C70.8758 68.3632 70.9671 68.4986 71.0296 68.6479L74.2583 67.2967ZM74.6249 69.1226C74.6249 68.4957 74.5003 67.875 74.2583 67.2967L71.0296 68.6479C71.0925 68.7982 71.1249 68.9596 71.1249 69.1226H74.6249ZM74.2583 70.9484C74.5003 70.3701 74.6249 69.7494 74.6249 69.1226H71.1249C71.1249 69.2855 71.0925 69.4469 71.0296 69.5972L74.2583 70.9484ZM73.4975 72.1874C73.8128 71.8168 74.0697 71.399 74.2583 70.9484L71.0296 69.5972C70.9806 69.7143 70.9138 69.8229 70.8318 69.9193L73.4975 72.1874ZM73.2252 72.5206C73.4216 72.3291 73.5834 72.1117 73.7085 71.8775L70.6208 70.2293C70.6632 70.1499 70.7175 70.0773 70.7816 70.0149L73.2252 72.5206ZM71.6228 74.0834L73.2253 72.5206L70.7815 70.015L69.1791 71.5778L71.6228 74.0834ZM70.1112 75.0955C70.685 74.8553 71.2057 74.5044 71.6436 74.0629L69.1584 71.5984C69.0445 71.7132 68.9092 71.8044 68.76 71.8668L70.1112 75.0955ZM68.2854 75.4621C68.9123 75.4621 69.5329 75.3375 70.1112 75.0955L68.76 71.8668C68.6097 71.9297 68.4483 71.9621 68.2854 71.9621V75.4621ZM66.4595 75.0955C67.0378 75.3375 67.6585 75.4621 68.2854 75.4621V71.9621C68.1224 71.9621 67.9611 71.9297 67.8107 71.8668L66.4595 75.0955ZM64.9167 74.0523C65.3568 74.4989 65.8812 74.8534 66.4595 75.0955L67.8107 71.8668C67.6604 71.8039 67.524 71.7117 67.4097 71.5956L64.9167 74.0523ZM64.913 74.0485L64.9149 74.0505L67.4115 71.5975L67.4095 71.5955L64.913 74.0485ZM52.7232 61.6006L64.9109 74.0464L67.4116 71.5976L55.2238 59.1518L52.7232 61.6006ZM51.3523 58.2626C51.3523 59.5166 51.8482 60.7197 52.7318 61.6094L55.2152 59.143C54.9828 58.909 54.8523 58.5925 54.8523 58.2626H51.3523ZM52.4798 55.1904C51.7545 56.0454 51.3523 57.1333 51.3523 58.2626H54.8523C54.8523 57.9656 54.9581 57.6794 55.1488 57.4545L52.4798 55.1904ZM43.3245 47.7323L52.5401 57.522L55.0886 55.1229L45.873 45.3333L43.3245 47.7323ZM42.955 49.9833C43.9443 49.3362 44.8809 48.6204 45.7588 47.843L43.4387 45.2225C42.6873 45.8878 41.8857 46.5004 41.039 47.0543L42.955 49.9833ZM29.4242 53.9444C34.2269 53.9911 38.9357 52.6126 42.955 49.9833L41.039 47.0543C37.5989 49.3047 33.5688 50.4845 29.4582 50.4446L29.4242 53.9444ZM15.973 49.721C19.9405 52.428 24.6215 53.8977 29.4242 53.9444L29.4582 50.4446C25.3477 50.4046 21.3413 49.1467 17.9456 46.8298L15.973 49.721ZM7.13482 38.7365C8.92985 43.1914 12.0055 47.014 15.973 49.721L17.9456 46.8298C14.55 44.513 11.9175 41.2413 10.3812 37.4284L7.13482 38.7365ZM5.88842 24.6931C4.90605 29.3945 5.33979 34.2816 7.13482 38.7365L10.3812 37.4284C8.84487 33.6156 8.47363 29.4328 9.31443 25.4089L5.88842 24.6931ZM12.6539 12.3237C9.22519 15.6871 6.8708 19.9916 5.88842 24.6931L9.31443 25.4089C10.1552 21.3851 12.1703 17.7009 15.1048 14.8223L12.6539 12.3237ZM20.584 7.13481C17.6255 8.32689 14.9309 10.0901 12.6539 12.3237L15.1048 14.8223C17.0537 12.9105 19.36 11.4015 21.8921 10.3812L20.584 7.13481ZM29.8964 5.37615C26.7069 5.34514 23.5425 5.94274 20.584 7.13481L21.8921 10.3812C24.4242 9.36092 27.1325 8.84944 29.8623 8.87598L29.8964 5.37615ZM39.1727 7.31552C36.238 6.06616 33.0858 5.40715 29.8964 5.37615L29.8623 8.87598C32.5921 8.90252 35.29 9.46655 37.8018 10.5359L39.1727 7.31552ZM29.8236 13.669C25.5764 13.6257 21.4853 15.2684 18.4475 18.2369L20.8937 20.7402C23.2688 18.4193 26.4673 17.1349 29.788 17.1688L29.8236 13.669ZM41.1045 18.4681C38.1278 15.4381 34.071 13.7123 29.8236 13.669L29.788 17.1688C33.1087 17.2026 36.2804 18.552 38.6077 20.9209L41.1045 18.4681ZM45.4069 26.7177C44.8204 23.6036 43.3238 20.7334 41.1062 18.4698L38.606 20.9192C40.3392 22.6883 41.509 24.9316 41.9673 27.3655L45.4069 26.7177ZM44.4007 35.9657C45.6432 33.0504 45.9934 29.8321 45.4069 26.7177L41.9673 27.3655C42.4257 29.7995 42.1521 32.3149 41.1809 34.5934L44.4007 35.9657ZM38.4261 43.0962C41.079 41.3625 43.1581 38.8811 44.4007 35.9657L41.1809 34.5934C40.2098 36.872 38.5848 38.8114 36.5114 40.1664L38.4261 43.0962ZM29.497 45.7057C32.666 45.738 35.7733 44.8299 38.4261 43.0962L36.5114 40.1664C34.4381 41.5214 32.0095 42.2311 29.5327 42.2059L29.497 45.7057ZM20.623 42.9147C23.2399 44.7021 26.3281 45.6734 29.497 45.7057L29.5327 42.2059C27.056 42.1806 24.6424 41.4215 22.5971 40.0245L20.623 42.9147ZM14.7951 35.6639C15.9779 38.604 18.0061 41.1273 20.623 42.9147L22.5971 40.0245C20.5517 38.6275 18.9666 36.6554 18.0421 34.3575L14.7951 35.6639ZM13.9776 26.3973C13.3277 29.499 13.6122 32.7238 14.7951 35.6639L18.0421 34.3575C17.1177 32.0597 16.8953 29.5393 17.4032 27.115L13.9776 26.3973ZM18.4458 18.2386C16.1824 20.4565 14.6275 23.2957 13.9776 26.3973L17.4032 27.115C17.9111 24.691 19.1264 22.4719 20.8954 20.7385L18.4458 18.2386Z" fill="white" mask="url(#path-1-outside-1)"/>
<path fill-rule="evenodd" clip-rule="evenodd" d="M50.9448 25.643C50.1503 21.4335 48.1254 17.5542 45.1262 14.4954C43.1345 12.4641 40.7621 10.8451 38.1445 9.73077C35.527 8.61645 32.7156 8.02868 29.8708 8.00102C27.0261 7.97337 24.2038 8.50637 21.5651 9.5696C18.9264 10.6328 16.523 12.2054 14.4921 14.1976C11.434 17.1975 9.33412 21.0367 8.45793 25.23C7.58174 29.4232 7.9686 33.7821 9.5696 37.7555C11.1706 41.7288 13.9139 45.1383 17.4525 47.5526C20.9911 49.967 25.1661 51.2779 29.4497 51.3195C33.7333 51.3612 37.9331 50.1317 41.518 47.7866C45.1028 45.4415 47.9119 42.086 49.5898 38.1445C51.2677 34.203 51.7393 29.8525 50.9448 25.643ZM29.8236 13.669C25.5762 13.6257 21.4849 15.2686 18.447 18.2374L18.4462 18.2382C16.1826 20.4562 14.6275 23.2956 13.9776 26.3973C13.3277 29.499 13.6122 32.7238 14.7951 35.6639C15.9779 38.604 18.0061 41.1273 20.623 42.9147C23.2399 44.7021 26.3281 45.6734 29.497 45.7057C32.666 45.738 35.7733 44.8299 38.4261 43.0962C41.079 41.3625 43.1581 38.8811 44.4007 35.9657C45.6432 33.0504 45.9934 29.8321 45.4069 26.7177C44.8204 23.6034 43.3235 20.7329 41.1056 18.4692L41.1048 18.4684C38.1281 15.4383 34.0711 13.7123 29.8236 13.669Z" fill="#19B5BC"/>
<path fill-rule="evenodd" clip-rule="evenodd" d="M29.8058 15.4189C26.0219 15.3803 22.377 16.8438 19.6706 19.4886C17.6544 21.4642 16.2693 23.9934 15.6904 26.7562C15.1115 29.5192 15.3649 32.3918 16.4186 35.0107C17.4723 37.6297 19.2789 39.8774 21.61 41.4696C23.9411 43.0618 26.692 43.927 29.5149 43.9558C32.3377 43.9845 35.1057 43.1756 37.4688 41.6313C39.8319 40.0869 41.6839 37.8765 42.7908 35.2796C43.8976 32.6826 44.2096 29.8158 43.6871 27.0416C43.1647 24.2676 41.8315 21.7108 39.8561 19.6945C37.2041 16.995 33.5898 15.4574 29.8058 15.4189ZM18.447 18.2374C21.4849 15.2686 25.5762 13.6257 29.8236 13.669C34.0711 13.7123 38.1281 15.4383 41.1048 18.4684L41.1056 18.4692C43.3235 20.7329 44.8204 23.6034 45.4069 26.7177C45.9934 29.8321 45.6432 33.0504 44.4007 35.9657C43.1581 38.8811 41.079 41.3625 38.4261 43.0962C35.7733 44.8299 32.666 45.738 29.497 45.7057C26.3281 45.6734 23.2399 44.7021 20.623 42.9147C18.0061 41.1273 15.9779 38.604 14.7951 35.6639C13.6122 32.7238 13.3277 29.499 13.9776 26.3973C14.6275 23.2956 16.1826 20.4562 18.4462 18.2382L18.447 18.2374Z" fill="#222222"/>
<path fill-rule="evenodd" clip-rule="evenodd" d="M59.6943 62C59.3492 61.9964 59.0195 61.8506 58.7773 61.5945L44.3553 46.2742C44.1215 46.0177 43.9939 45.6755 44.0002 45.3217C44.0065 44.968 44.1461 44.631 44.3889 44.3836C44.6317 44.1363 44.9582 43.9985 45.2977 44C45.6372 44.0015 45.9625 44.1423 46.2032 44.3918L60.6251 59.7121C60.8653 59.9643 61 60.3052 61 60.6605C61 61.0159 60.8653 61.3568 60.6251 61.609C60.5071 61.7334 60.3664 61.8321 60.2113 61.8992C60.0563 61.9663 59.8899 62.0006 59.722 62" fill="#222222"/>
<path fill-rule="evenodd" clip-rule="evenodd" d="M71.3925 70.6414L69.7843 72.2098C69.5885 72.4085 69.3552 72.5663 69.0978 72.674C68.8405 72.7817 68.5643 72.8371 68.2854 72.8371C68.0064 72.8371 67.7302 72.7817 67.4729 72.674C67.2156 72.5663 66.9822 72.4085 66.7864 72.2098L54.5963 59.7616C54.1999 59.3635 53.9773 58.8245 53.9773 58.2626C53.9773 57.7008 54.1999 57.1618 54.5963 56.7637L56.1846 55.1953C56.3821 54.996 56.6171 54.8378 56.8761 54.7298C57.1351 54.6219 57.4129 54.5663 57.6935 54.5663C57.9741 54.5663 58.2519 54.6219 58.5108 54.7298C58.7698 54.8378 59.0048 54.996 59.2023 55.1953L71.3726 67.6236C71.5713 67.8194 71.7291 68.0528 71.8368 68.3101C71.9445 68.5674 71.9999 68.8436 71.9999 69.1226C71.9999 69.4015 71.9445 69.6777 71.8368 69.935C71.7291 70.1923 71.5713 70.4257 71.3726 70.6215" fill="#F27F70"/>
<path fill-rule="evenodd" clip-rule="evenodd" d="M57.6935 55.4413C57.5285 55.4413 57.3651 55.474 57.2128 55.5375C57.0605 55.6009 56.9223 55.694 56.8061 55.8112L56.7995 55.8179L56.7994 55.8179L55.2141 57.3834C54.9823 57.6173 54.8523 57.9333 54.8523 58.2626C54.8523 58.5931 54.9832 58.91 55.2163 59.1442L55.2215 59.1494L55.2215 59.1494L67.4096 71.5956C67.41 71.596 67.4103 71.5963 67.4106 71.5966C67.5248 71.7122 67.6608 71.8041 67.8107 71.8668C67.961 71.9297 68.1224 71.9621 68.2854 71.9621C68.4484 71.9621 68.6097 71.9297 68.76 71.8668C68.9104 71.8039 69.0467 71.7117 69.1611 71.5956L69.1734 71.5834L70.6233 70.1693C70.6602 70.1082 70.7053 70.0507 70.7584 69.9983C70.8745 69.8839 70.9667 69.7475 71.0296 69.5972C71.0925 69.4469 71.1249 69.2855 71.1249 69.1226C71.1249 68.9596 71.0925 68.7982 71.0296 68.6479C70.9667 68.4976 70.8745 68.3612 70.7584 68.2468L70.7474 68.2358L58.5809 55.8112C58.5803 55.8106 58.5798 55.8101 58.5792 55.8095C58.4634 55.6931 58.3258 55.6006 58.1742 55.5375C58.0219 55.474 57.8585 55.4413 57.6935 55.4413ZM72.1646 71.0534C72.1233 71.1308 72.0696 71.2032 72.0034 71.2678L70.401 72.8306C70.1251 73.1088 69.7971 73.3299 69.4356 73.4811C69.0713 73.6336 68.6803 73.7121 68.2854 73.7121C67.8904 73.7121 67.4994 73.6336 67.1351 73.4811C66.7708 73.3287 66.4404 73.1053 66.1632 72.824L66.1613 72.822L53.9735 60.3762C53.4155 59.8143 53.1023 59.0546 53.1023 58.2626C53.1023 57.4694 53.4165 56.7084 53.9763 56.1463L53.9815 56.1411L53.9815 56.1411L55.5667 54.5757C55.8448 54.296 56.1754 54.0739 56.5394 53.9222C56.9051 53.7698 57.2973 53.6913 57.6935 53.6913C58.0896 53.6913 58.4818 53.7698 58.8475 53.9222C59.2132 54.0746 59.545 54.298 59.8238 54.5793L59.8275 54.5831L59.8275 54.5831L71.9928 67.0063C72.2712 67.2823 72.4925 67.6106 72.6439 67.9723C72.7964 68.3366 72.8749 68.7276 72.8749 69.1226C72.8749 69.5175 72.7964 69.9085 72.6439 70.2728C72.5252 70.5566 72.3633 70.8199 72.1646 71.0534Z" fill="#222222"/>
<path fill-rule="evenodd" clip-rule="evenodd" d="M29.8623 8.87598C27.1325 8.84944 24.4242 9.36092 21.8921 10.3812C19.36 11.4015 17.0537 12.9105 15.1048 14.8223C12.1703 17.7009 10.1552 21.3851 9.31443 25.4089C8.47363 29.4328 8.84487 33.6156 10.3812 37.4285C11.9175 41.2413 14.55 44.513 17.9456 46.8298C21.3413 49.1467 25.3477 50.4046 29.4582 50.4446C33.5688 50.4845 37.5989 49.3047 41.039 47.0543C44.479 44.804 47.1746 41.5841 48.7847 37.8018C50.3949 34.0195 50.8474 29.8447 50.0849 25.8053C49.3225 21.7659 47.3795 18.0432 44.5014 15.108C42.5901 13.1588 40.3136 11.6052 37.8018 10.5359C35.29 9.46655 32.5921 8.90252 29.8623 8.87598ZM45.751 13.8828C43.6788 11.7695 41.2105 10.085 38.4873 8.92569C35.764 7.76635 32.839 7.15484 29.8794 7.12606C26.9197 7.09729 23.9834 7.65183 21.2381 8.758C18.4928 9.86417 15.9923 11.5003 13.8794 13.573C10.6977 16.694 8.51301 20.6884 7.60143 25.051C6.68984 29.4136 7.09233 33.9486 8.75801 38.0825C10.4237 42.2164 13.2778 45.7635 16.9593 48.2754C20.6409 50.7873 24.9846 52.1512 29.4412 52.1945C33.8979 52.2378 38.2673 50.9587 41.997 48.5188C45.7267 46.079 48.6492 42.588 50.3949 38.4873C52.1406 34.3865 52.6312 29.8602 51.8046 25.4807C50.978 21.1012 48.8713 17.0651 45.751 13.8828Z" fill="#222222"/>
</svg>
